<?xml version="1.0" encoding="UTF-8" standalone="no"?>
<!DOCTYPE svg PUBLIC "-//W3C//DTD SVG 1.1//EN"
 "http://www.w3.org/Graphics/SVG/1.1/DTD/svg11.dtd">
<!-- Generated by graphviz version 2.38.0 (20140413.2041)
 -->
<!-- Title: temp Pages: 1 -->
<svg width="350pt" height="260pt"
 viewBox="0.00 0.00 350.00 260.00" xmlns="http://www.w3.org/2000/svg" xmlns:xlink="http://www.w3.org/1999/xlink">
<g id="graph0" class="graph" transform="scale(1 1) rotate(0) translate(4 256)">
<title>temp</title>
<polygon fill="white" stroke="none" points="-4,4 -4,-256 346,-256 346,4 -4,4"/>
<!-- 2982118898880 -->
<g id="node1" class="node"><title>2982118898880</title>
<ellipse fill="none" stroke="black" cx="207" cy="-234" rx="27" ry="18"/>
<text text-anchor="middle" x="207" y="-230.3" font-family="Times New Roman,serif" font-size="14.00">15</text>
</g>
<!-- 2982118899216 -->
<g id="node2" class="node"><title>2982118899216</title>
<ellipse fill="none" stroke="black" cx="99" cy="-162" rx="27" ry="18"/>
<text text-anchor="middle" x="99" y="-158.3" font-family="Times New Roman,serif" font-size="14.00">3</text>
</g>
<!-- 2982118898880&#45;&#45;2982118899216 -->
<g id="edge1" class="edge"><title>2982118898880&#45;&#45;2982118899216</title>
<path fill="none" stroke="black" d="M188.188,-220.807C168.365,-207.959 137.338,-187.848 117.597,-175.053"/>
</g>
<!-- 2982118899552 -->
<g id="node3" class="node"><title>2982118899552</title>
<ellipse fill="none" stroke="black" cx="207" cy="-162" rx="27" ry="18"/>
<text text-anchor="middle" x="207" y="-158.3" font-family="Times New Roman,serif" font-size="14.00">8</text>
</g>
<!-- 2982118898880&#45;&#45;2982118899552 -->
<g id="edge2" class="edge"><title>2982118898880&#45;&#45;2982118899552</title>
<path fill="none" stroke="black" d="M207,-215.697C207,-204.846 207,-190.917 207,-180.104"/>
</g>
<!-- 2982118899440 -->
<g id="node4" class="node"><title>2982118899440</title>
<ellipse fill="none" stroke="black" cx="279" cy="-162" rx="27" ry="18"/>
<text text-anchor="middle" x="279" y="-158.3" font-family="Times New Roman,serif" font-size="14.00">9</text>
</g>
<!-- 2982118898880&#45;&#45;2982118899440 -->
<g id="edge3" class="edge"><title>2982118898880&#45;&#45;2982118899440</title>
<path fill="none" stroke="black" d="M221.57,-218.834C233.98,-206.77 251.731,-189.512 264.204,-177.385"/>
</g>
<!-- 2982118899160 -->
<g id="node5" class="node"><title>2982118899160</title>
<ellipse fill="none" stroke="black" cx="27" cy="-90" rx="27" ry="18"/>
<text text-anchor="middle" x="27" y="-86.3" font-family="Times New Roman,serif" font-size="14.00">&#45;6</text>
</g>
<!-- 2982118899216&#45;&#45;2982118899160 -->
<g id="edge4" class="edge"><title>2982118899216&#45;&#45;2982118899160</title>
<path fill="none" stroke="black" d="M84.4297,-146.834C72.0202,-134.77 54.2694,-117.512 41.7957,-105.385"/>
</g>
<!-- 2982118898992 -->
<g id="node6" class="node"><title>2982118898992</title>
<ellipse fill="none" stroke="black" cx="99" cy="-90" rx="27" ry="18"/>
<text text-anchor="middle" x="99" y="-86.3" font-family="Times New Roman,serif" font-size="14.00">10</text>
</g>
<!-- 2982118899216&#45;&#45;2982118898992 -->
<g id="edge5" class="edge"><title>2982118899216&#45;&#45;2982118898992</title>
<path fill="none" stroke="black" d="M99,-143.697C99,-132.846 99,-118.917 99,-108.104"/>
</g>
<!-- 2982118899048 -->
<g id="node7" class="node"><title>2982118899048</title>
<ellipse fill="none" stroke="black" cx="171" cy="-90" rx="27" ry="18"/>
<text text-anchor="middle" x="171" y="-86.3" font-family="Times New Roman,serif" font-size="14.00">11</text>
</g>
<!-- 2982118899552&#45;&#45;2982118899048 -->
<g id="edge6" class="edge"><title>2982118899552&#45;&#45;2982118899048</title>
<path fill="none" stroke="black" d="M198.65,-144.765C192.835,-133.456 185.11,-118.437 179.304,-107.147"/>
</g>
<!-- 2982118899384 -->
<g id="node8" class="node"><title>2982118899384</title>
<ellipse fill="none" stroke="black" cx="243" cy="-90" rx="27" ry="18"/>
<text text-anchor="middle" x="243" y="-86.3" font-family="Times New Roman,serif" font-size="14.00">2</text>
</g>
<!-- 2982118899552&#45;&#45;2982118899384 -->
<g id="edge7" class="edge"><title>2982118899552&#45;&#45;2982118899384</title>
<path fill="none" stroke="black" d="M215.35,-144.765C221.165,-133.456 228.89,-118.437 234.696,-107.147"/>
</g>
<!-- 2982118899496 -->
<g id="node9" class="node"><title>2982118899496</title>
<ellipse fill="none" stroke="black" cx="315" cy="-90" rx="27" ry="18"/>
<text text-anchor="middle" x="315" y="-86.3" font-family="Times New Roman,serif" font-size="14.00">5</text>
</g>
<!-- 2982118899552&#45;&#45;2982118899496 -->
<g id="edge8" class="edge"><title>2982118899552&#45;&#45;2982118899496</title>
<path fill="none" stroke="black" d="M225.812,-148.807C245.635,-135.959 276.662,-115.848 296.403,-103.053"/>
</g>
<!-- 2982118899272 -->
<g id="node10" class="node"><title>2982118899272</title>
<ellipse fill="none" stroke="black" cx="135" cy="-18" rx="27" ry="18"/>
<text text-anchor="middle" x="135" y="-14.3" font-family="Times New Roman,serif" font-size="14.00">0</text>
</g>
<!-- 2982118899048&#45;&#45;2982118899272 -->
<g id="edge9" class="edge"><title>2982118899048&#45;&#45;2982118899272</title>
<path fill="none" stroke="black" d="M162.65,-72.7646C156.835,-61.456 149.11,-46.4367 143.304,-35.1473"/>
</g>
<!-- 2982118899328 -->
<g id="node11" class="node"><title>2982118899328</title>
<ellipse fill="none" stroke="black" cx="207" cy="-18" rx="27" ry="18"/>
<text text-anchor="middle" x="207" y="-14.3" font-family="Times New Roman,serif" font-size="14.00">4</text>
</g>
<!-- 2982118899048&#45;&#45;2982118899328 -->
<g id="edge10" class="edge"><title>2982118899048&#45;&#45;2982118899328</title>
<path fill="none" stroke="black" d="M179.35,-72.7646C185.165,-61.456 192.89,-46.4367 198.696,-35.1473"/>
</g>
</g>
</svg>
